<svg width="33" height="32" viewBox="0 0 33 32" fill="none" xmlns="http://www.w3.org/2000/svg">
<rect width="32" height="32" transform="translate(0.5 0.00195312)" fill="white"/>
<path fill-rule="evenodd" clip-rule="evenodd" d="M0.5 27.3894C0.785184 27.2474 1.00048 27.0026 1.21373 26.741C1.47395 26.4225 1.72893 26.1198 2.0447 25.861C2.4232 25.5511 2.92931 25.2546 3.56598 25.1608C3.43876 25.8969 3.37452 26.6425 3.37398 27.3894H0.5ZM2.64323 19.4045L2.64362 19.4048L2.64336 19.4044C2.9617 19.4237 3.27094 19.3191 3.58659 19.199C3.97149 19.0529 4.3441 18.9182 4.74717 18.8515C5.23254 18.7717 5.82301 18.768 6.42422 19.008C5.47101 20.1465 4.70762 21.4483 4.18282 22.8659C3.67811 22.4668 3.38819 21.957 3.21552 21.4996C3.07178 21.1178 3.00253 20.7285 2.93686 20.3228C2.8831 19.9896 2.81936 19.67 2.64323 19.4045ZM8.49974 13.5591L8.49987 13.5594V13.559C8.76573 13.7347 9.08611 13.7984 9.41981 13.8519C9.82634 13.9176 10.2165 13.9867 10.5988 14.1302C11.0594 14.3031 11.5724 14.5945 11.973 15.1025C10.5513 15.624 9.24547 16.3847 8.10307 17.3345C7.86205 16.734 7.8655 16.1438 7.94576 15.6589C8.01258 15.2567 8.14749 14.8848 8.29392 14.5007C8.4145 14.1855 8.5192 13.8767 8.49974 13.5591ZM16.4997 11.4194V11.4198L16.5001 11.4194C16.6422 11.7043 16.8877 11.9193 17.1499 12.132C17.469 12.3919 17.7722 12.6464 18.0315 12.9615C18.3438 13.3416 18.6428 13.8508 18.7349 14.4919C17.2556 14.2386 15.744 14.2387 14.2647 14.492C14.3569 13.8508 14.6556 13.3416 14.9682 12.9615C15.2276 12.6464 15.5308 12.3919 15.8499 12.132C16.1122 11.9193 16.3575 11.7043 16.4997 11.4194ZM24.4997 13.559V13.5594L24.5 13.5591C24.4805 13.8767 24.5854 14.1854 24.7058 14.5005C24.852 14.8847 24.9872 15.2566 25.054 15.6588C25.134 16.1436 25.1374 16.7337 24.8965 17.3343C23.7544 16.3844 22.4483 15.624 21.0268 15.1023C21.4275 14.5944 21.9405 14.3031 22.4009 14.1301C22.7834 13.9864 23.1735 13.9173 23.5801 13.8517C23.9138 13.7983 24.2341 13.7346 24.4997 13.559ZM30.3564 19.4042L30.3561 19.4045H30.3565C30.1806 19.6699 30.1169 19.9895 30.0631 20.3227C29.9973 20.7283 29.9281 21.1177 29.7845 21.4994C29.6118 21.9569 29.3219 22.4666 28.8171 22.8657C28.2925 21.448 27.529 20.1462 26.5758 19.0077C27.1771 18.7679 27.7672 18.7715 28.2528 18.8513C28.6558 18.9181 29.0285 19.0528 29.4133 19.1989C29.7289 19.3191 30.0382 19.4237 30.3564 19.4042ZM29.4338 25.1605C30.0703 25.2545 30.5767 25.5509 30.9552 25.8608C31.2709 26.1196 31.5259 26.4222 31.7863 26.7408C31.9993 27.0024 32.2147 27.2473 32.5 27.3893H29.626C29.6252 26.6295 29.5589 25.885 29.4338 25.1605ZM20.3147 15.9121C25.1456 17.5048 28.6371 22.0393 28.6573 27.3897H26.2669C26.4252 22.716 24.3815 18.4975 20.3147 15.9121Z" fill="#1D1D1D"/>
<path fill-rule="evenodd" clip-rule="evenodd" d="M20.7995 27.3894H22.0418C22.1019 26.0421 21.9861 24.4458 21.5495 23.0519C21.4633 22.777 21.3647 22.5098 21.2527 22.255C20.9883 21.6528 20.6325 21.1075 20.2083 20.6036C19.7369 20.044 19.175 19.5406 18.5416 19.1441C18.3539 19.0263 18.1601 18.9186 17.9609 18.8215V18.8212C17.7609 18.7235 17.5555 18.6372 17.3456 18.5629L17.3448 18.5625C14.9255 17.7052 12.4786 18.3149 10.4262 19.4293C10.026 19.6464 9.64088 19.8828 9.27416 20.1309C8.90757 20.3791 8.55864 20.6396 8.23045 20.9053H8.23019L8.22981 20.9059C7.84018 21.2213 7.3525 21.6528 6.87007 22.1631C6.77494 22.2635 6.68157 22.3656 6.59 22.4692C6.34565 22.7453 5.96959 23.1326 6.08107 23.5332C6.16952 23.851 6.58002 23.7572 6.72325 23.6477C6.94264 23.5302 7.18379 23.3439 7.39013 23.1695C7.66955 22.9335 7.93324 22.6795 8.20984 22.4402C9.32856 21.4722 10.4948 20.7258 11.6432 20.2206C11.8936 20.1106 12.1442 20.0114 12.3939 19.9239C12.6429 19.8366 12.8905 19.761 13.1359 19.6974L13.1371 19.6971C15.2743 19.143 17.5967 19.5021 19.0837 21.2416C20.5161 22.9173 20.7777 25.1604 20.7995 27.3894ZM5.38501 25.4953C5.51839 25.3709 5.65445 25.2087 5.79627 25.0289C5.99455 24.7778 6.01439 24.5347 5.93618 24.3592C5.90687 24.2937 5.86373 24.2374 5.81138 24.1936C5.75954 24.1503 5.69823 24.1194 5.63205 24.1043C5.47039 24.0674 5.27698 24.125 5.11314 24.3245C4.92754 24.55 4.67115 24.9352 4.6188 25.276C4.60907 25.34 4.60639 25.4021 4.61304 25.4603C4.61944 25.5171 4.63455 25.571 4.66015 25.62L4.66027 25.6207L4.6604 25.6206C4.70226 25.7006 4.77279 25.7428 4.86674 25.7463C4.88632 25.747 4.90757 25.7462 4.92997 25.7437C4.95211 25.7414 4.97592 25.737 5.00139 25.731V25.7311L5.00242 25.7309C5.12914 25.7006 5.2556 25.6157 5.38501 25.4953ZM18.2719 27.3894H19.5041C19.5625 25.9374 19.3282 24.4375 18.6517 23.1399C18.0365 21.9594 17.0194 21.1569 15.7028 20.9629C13.7808 20.6799 11.8413 21.4919 10.2018 22.654C8.41656 23.9192 6.9429 25.6372 5.65509 27.3894L7.28261 27.3872C8.74796 25.3142 12.1185 22.1672 14.5976 22.1465C15.3877 22.1399 16.1909 22.3252 16.7848 22.854C17.2153 23.2372 17.7369 23.9815 17.7114 24.5854C17.6963 24.9436 17.3778 25.0534 17.0724 24.9426C16.8353 24.8562 16.6676 24.6398 16.5016 24.4123C15.962 23.6731 15.1208 23.3113 14.1978 23.4373C13.097 23.5876 11.7325 24.4407 10.8524 25.2165C10.0934 25.8858 9.39679 26.6182 8.73938 27.3893H10.4893C11.1307 26.6166 11.8079 25.9576 12.6785 25.4162C12.9542 25.245 13.2934 25.0638 13.65 24.9416C14.5496 24.6328 15.4449 24.7109 15.8422 25.8291C15.9985 26.2687 16.0214 26.6541 15.9759 27.3608L15.9757 27.3894H17.1657L17.1687 27.3531C17.1696 26.9663 17.1613 26.7055 17.1962 26.3222C17.2263 25.9917 17.3292 25.6492 17.6367 25.6086C18.2904 25.4718 18.259 26.923 18.2719 27.3894ZM13.8305 27.3923L14.818 27.3893C14.9478 26.5566 14.6939 25.9158 13.8503 26.0685C13.1391 26.1975 12.3753 26.9026 11.9139 27.3893L13.2159 27.3835C13.3611 27.2882 13.645 27.1798 13.7616 27.2607C13.8054 27.291 13.8281 27.3338 13.8305 27.3923ZM23.907 27.39L23.916 27.3896H23.9204C24.0502 27.3968 24.2759 27.337 24.4061 27.1179C24.4321 27.0741 24.4542 27.024 24.4711 26.9672C24.4884 26.9093 24.5003 26.8437 24.5053 26.7701H24.5055L24.5063 26.7549C24.605 23.311 23.5482 20.46 21.7542 18.5229C21.4057 18.1469 21.0288 17.8048 20.627 17.4992C20.2255 17.194 19.7992 16.9256 19.3517 16.6969V16.697L19.3447 16.6933L19.3444 16.6932C17.8363 15.924 16.1261 15.6285 14.4472 15.7705C14.1203 15.7981 13.795 15.8422 13.4726 15.9027C13.1503 15.9628 12.8303 16.04 12.5154 16.1327L12.511 16.1341C10.7844 16.6437 9.17791 17.6555 7.86859 18.9833C7.61344 19.242 7.37012 19.5121 7.13938 19.7928C7.02478 19.9321 6.91331 20.074 6.80504 20.2183C7.72331 19.4277 8.70815 18.7341 9.73855 18.183C9.97061 18.0588 10.2041 17.9424 10.4381 17.8342C10.672 17.7261 10.9092 17.6252 11.1495 17.5319L11.1503 17.5317L11.1509 17.5314C12.0611 17.1783 12.9585 16.953 13.856 16.8524C14.7537 16.7518 15.6518 16.7758 16.5638 16.9205C17.213 17.0235 17.8463 17.1931 18.4171 17.4305C18.5277 17.4764 18.6369 17.5254 18.7435 17.577C18.8487 17.6278 18.9522 17.6822 19.0539 17.7393H19.0541L19.0557 17.7401V17.7402C21.065 18.8383 22.461 21.0919 23.0758 23.6363C23.1957 24.1324 23.2859 24.6394 23.3452 25.15C23.4043 25.6605 23.4328 26.1763 23.4292 26.6916V26.6919L23.4289 26.7214C23.4392 26.9971 23.5337 27.2276 23.6958 27.3313C23.7261 27.3506 23.7588 27.3656 23.7936 27.3753H23.7938C23.8296 27.3854 23.8672 27.3904 23.907 27.39Z" fill="#1D1D1D"/>
<circle cx="24.4393" cy="9.33529" r="6.83333" fill="#D63941" stroke="#FDFDFD"/>
<path d="M23.7601 8.74099L23.876 8.74224C23.8768 8.74141 23.8772 8.74099 23.8772 8.74099L24.4867 8.74224C24.4095 8.50541 24.2911 8.29226 24.134 8.11277C23.9944 7.95322 23.8249 7.8211 23.6354 7.72886C23.4434 7.63662 23.2303 7.58302 23.0072 7.58427L20.3958 7.58302C20.174 7.58302 19.9596 7.63537 19.7676 7.72761C19.4809 7.86722 19.2441 8.09407 19.0795 8.37328C18.9163 8.65125 18.8215 8.98281 18.8228 9.33556C18.8215 9.80548 18.9873 10.238 19.2678 10.5584C19.4074 10.7179 19.5769 10.85 19.7676 10.9435C19.9596 11.0358 20.174 11.0881 20.3958 11.0881L23.0059 11.0881C23.2303 11.0881 23.4435 11.0345 23.6342 10.9435C23.9208 10.8039 24.1589 10.5758 24.3222 10.2978C24.3908 10.1844 24.4456 10.0598 24.488 9.93013L23.8772 9.93013C23.8764 9.9293 23.876 9.92888 23.876 9.92888H23.7613C23.7239 9.99868 23.6803 10.0623 23.6317 10.1183C23.5469 10.2131 23.4484 10.2891 23.3425 10.3402C23.239 10.3913 23.1256 10.4175 23.0072 10.4187H20.3971C20.2774 10.4187 20.1652 10.3913 20.0593 10.3402C19.901 10.2642 19.7589 10.1321 19.6567 9.95755C19.5532 9.78429 19.4909 9.5699 19.4909 9.33556C19.4909 9.02394 19.6018 8.74598 19.7713 8.55402C19.8561 8.4568 19.9533 8.38201 20.0593 8.3309C20.1652 8.2798 20.2774 8.25238 20.3971 8.25238L23.0072 8.25238C23.1256 8.25362 23.2378 8.28104 23.3425 8.3309C23.5008 8.40694 23.6429 8.53906 23.7463 8.71232C23.7513 8.7223 23.7563 8.73227 23.7601 8.74099Z" fill="white"/>
<path d="M25.3172 9.929L24.5918 9.92901C24.6678 10.1646 24.7875 10.379 24.9433 10.5572C25.0841 10.718 25.2524 10.8489 25.4444 10.9436C25.6351 11.0346 25.8482 11.0882 26.0726 11.0882L28.6827 11.0882C28.9046 11.0882 29.119 11.0359 29.3109 10.9436C29.5976 10.804 29.8344 10.5772 29.999 10.298C30.1623 10.02 30.257 9.68844 30.2557 9.33568C30.2557 8.86452 30.0912 8.43324 29.8108 8.11289C29.6711 7.95334 29.5016 7.82122 29.3109 7.72773C29.119 7.63549 28.9046 7.58314 28.6827 7.58314L26.0726 7.58314C25.8495 7.58439 25.6351 7.63674 25.4444 7.72773C25.1577 7.86734 24.9196 8.09544 24.7563 8.37341C24.6877 8.48684 24.6329 8.61148 24.5918 8.74236L25.3172 8.74236C25.3546 8.67256 25.3982 8.60899 25.4481 8.55414C25.5316 8.45817 25.6301 8.38213 25.7348 8.32978C25.8407 8.28117 25.9529 8.25374 26.0726 8.25374L28.6827 8.25374C28.8024 8.25374 28.9133 8.27992 29.0192 8.33103C29.1775 8.40706 29.3196 8.53919 29.4219 8.71369C29.5253 8.88695 29.5876 9.10135 29.5876 9.33568C29.5876 9.6473 29.4767 9.92526 29.3072 10.1172C29.2224 10.2144 29.1252 10.2892 29.0192 10.3403C28.9133 10.3914 28.8024 10.4176 28.6827 10.4176L26.0713 10.4189C25.9529 10.4176 25.8407 10.3902 25.736 10.3403C25.5777 10.2643 25.4356 10.1322 25.3309 9.95767C25.3272 9.94895 25.3235 9.93773 25.3172 9.929Z" fill="white"/>
<path d="M24.7844 8.86898L24.7021 8.86898L24.2226 8.868L24.2216 8.86898L24.1304 8.868L22.8127 8.868C22.5675 8.868 22.3675 9.06802 22.3675 9.31314V9.35824C22.3675 9.60337 22.5675 9.80338 22.8127 9.80338L24.1314 9.8024L24.2216 9.8024L24.2226 9.80338L24.703 9.80338L24.7844 9.8024L25.3551 9.8024L26.3581 9.80338C26.6032 9.80338 26.8023 9.60435 26.8032 9.35824V9.31314C26.8032 9.06802 26.6032 8.868 26.3581 8.868L25.3551 8.86898L24.7844 8.86898Z" fill="white"/>
</svg>
