<svg xmlns="http://www.w3.org/2000/svg" width="39" height="32" viewBox="0 0 39 32" fill="none">
  <path d="M31.2071 8.38334L30.3252 8.17205C29.2595 7.92401 28.4327 7.08803 28.1755 6.02239L27.9642 5.14047C27.9091 4.90162 27.5692 4.90162 27.514 5.14047L27.3028 6.02239C27.0547 7.08803 26.2187 7.91483 25.1531 8.17205L24.2712 8.38334C24.0323 8.43846 24.0323 8.77837 24.2712 8.83349L25.1531 9.03559C26.2187 9.28363 27.0455 10.1196 27.3028 11.1853L27.514 12.0672C27.5692 12.306 27.9091 12.306 27.9642 12.0672L28.1755 11.1853C28.4235 10.1196 29.2595 9.28363 30.3252 9.03559L31.2071 8.83349C31.4459 8.77837 31.4459 8.43846 31.2071 8.38334Z" fill="#D63941"/>
  <path d="M23.4995 5.70997L23.0034 5.59054C22.195 5.39762 21.5611 4.77293 21.3774 3.96451L21.2579 3.46844C21.212 3.25714 20.8997 3.25714 20.8537 3.46844L20.7343 3.96451C20.5414 4.77293 19.9167 5.39762 19.1083 5.59054L18.6122 5.70997C18.4009 5.7559 18.4009 6.06824 18.6122 6.11418L19.1083 6.2336C19.9167 6.42652 20.5506 7.05121 20.7343 7.85963L20.8537 8.35571C20.8997 8.567 21.212 8.567 21.2579 8.35571L21.3774 7.85963C21.5703 7.05121 22.195 6.41734 23.0034 6.2336L23.4995 6.11418C23.7108 6.06824 23.7108 5.7559 23.4995 5.70997Z" fill="#D63941"/>
  <path d="M38.3727 21.566C38.3727 20.7851 37.7756 20.1421 37.0223 20.0594C37.1601 19.7379 37.2427 19.3888 37.2427 19.0213V16.5225C37.2427 15.1078 36.0944 13.9595 34.6797 13.9595H14.9744C15.7461 13.6104 16.1962 13.2797 16.2146 13.2705L16.628 12.9581C16.628 12.9581 16.6556 12.9306 16.6739 12.9122C16.7382 12.8295 16.729 12.7009 16.6556 12.6274L16.2789 12.26C14.2395 10.2848 12.1633 9.39374 10.1055 9.61421C7.53326 9.88981 5.85211 11.8282 5.35603 12.4712C5.30091 12.5447 5.30091 12.6458 5.34685 12.7193C5.36522 12.7468 5.39278 12.7744 5.42953 12.7928C5.67757 12.9306 6.07259 13.1327 6.30225 13.2337C6.39412 13.2705 6.49517 13.3164 6.58704 13.3715C6.98206 13.6012 7.3679 13.7941 7.74455 13.9595H4.5568V8.26378C4.5568 8.13517 4.54761 8.01575 4.52005 7.89632C4.31795 6.97766 3.35335 6.30704 2.16828 6.30704H0.000244141V24.8456V27.1882C0.000244141 28.0242 0.680053 28.704 1.51603 28.704H3.04101C3.87699 28.704 4.5568 28.0242 4.5568 27.1882V25.0936H4.56599V24.8089H33.8437V27.1882C33.8437 28.0242 34.5235 28.704 35.3595 28.704H36.8845C37.7204 28.704 38.4002 28.0242 38.4002 27.1882V23.4676H38.3911C38.3911 23.4125 38.4002 23.3574 38.4002 23.2931V21.5752L38.3727 21.566ZM7.57 12.3702C7.51489 12.2783 7.53326 12.1497 7.62512 12.0854C8.28656 11.5618 9.18685 11.0565 10.2617 10.9463C11.6121 10.7993 13.0085 11.3045 14.4324 12.4161C14.5335 12.4896 14.5426 12.6274 14.4691 12.7193C14.4508 12.7468 14.4232 12.7744 14.3865 12.7836C13.0728 13.3715 10.6016 14.0054 7.65268 12.4437C7.61594 12.4253 7.58838 12.3978 7.57 12.361V12.3702ZM2.98589 9.52235V23.2839V25.0936V26.8023C2.98589 27.0045 2.82053 27.1606 2.62761 27.1606H1.89268C1.69058 27.1606 1.53441 26.9953 1.53441 26.8023V25.0936V24.6251L1.51603 8.00656C1.51603 7.92388 1.54359 7.8412 1.59871 7.77689C1.66302 7.69421 1.76407 7.63909 1.8835 7.63909H2.57249C2.57249 7.63909 2.60005 7.63909 2.60924 7.63909H2.62761C2.82972 7.63909 2.98589 7.80445 2.98589 7.99737V9.52235ZM4.56599 15.5212H34.6797C35.2309 15.5212 35.681 15.9713 35.681 16.5225V19.0213C35.681 19.5725 35.2309 20.0226 34.6797 20.0226H4.56599V15.5212ZM4.56599 23.2379V21.6119H36.811V23.2379H4.56599ZM36.8202 26.7932C36.8202 26.9953 36.6548 27.1514 36.4619 27.1514H35.7269C35.5248 27.1514 35.3687 26.9861 35.3687 26.7932V24.7997H36.8202V26.7932Z" fill="#D63941"/>
</svg>